<svg width="60" height="60" viewBox="0 0 60 60" fill="none" xmlns="http://www.w3.org/2000/svg">
<circle cx="30" cy="30" r="30" fill="#FF9F0D"/>
<path d="M39.3889 29.36L25.8911 21.111C25.7774 21.0415 25.6473 21.0036 25.514 21.0011C25.3808 20.9986 25.2493 21.0317 25.1331 21.0968C25.0169 21.162 24.9202 21.257 24.8528 21.3719C24.7855 21.4869 24.75 21.6177 24.75 21.751V38.2488C24.75 38.3821 24.7855 38.5129 24.8528 38.6279C24.9202 38.7429 25.0169 38.8378 25.1331 38.903C25.2493 38.9682 25.3808 39.0012 25.514 38.9987C25.6473 38.9962 25.7774 38.9583 25.8911 38.8888L39.3889 30.6399C39.4985 30.5729 39.5891 30.4788 39.652 30.3668C39.7148 30.2547 39.7478 30.1284 39.7478 29.9999C39.7478 29.8714 39.7148 29.7451 39.652 29.633C39.5891 29.521 39.4985 29.427 39.3889 29.36Z" stroke="white" stroke-width="1.5" stroke-linecap="round" stroke-linejoin="round"/>
</svg>
